<?xml version="1.0" encoding="UTF-8" standalone="no"?>
<svg xmlns="http://www.w3.org/2000/svg" xmlns:xlink="http://www.w3.org/1999/xlink" width="1200" height="900" viewBox="0 0 1200 900">
  <style>
    .title { font: bold 24px sans-serif; }
    .subtitle { font: bold 18px sans-serif; }
    .component { font: 14px sans-serif; }
    .description { font: 12px sans-serif; }
    .group-title { font: bold 16px sans-serif; }
    .flow-arrow { stroke: #333; stroke-width: 2; marker-end: url(#arrowhead); }
    .data-flow { stroke: #0066cc; stroke-width: 2; stroke-dasharray: 5,5; marker-end: url(#dataarrow); }
    .utxo-flow { stroke: #cc6600; stroke-width: 2; marker-end: url(#utxoarrow); }
    .user-flow { stroke: #009900; stroke-width: 3; marker-end: url(#userarrow); }
    .liquidation-flow { stroke: #cc0000; stroke-width: 2; marker-end: url(#liquidationarrow); }
  </style>
  
  <defs>
    <marker id="arrowhead" markerWidth="10" markerHeight="7" refX="9" refY="3.5" orient="auto">
      <polygon points="0 0, 10 3.5, 0 7" fill="#333"/>
    </marker>
    <marker id="dataarrow" markerWidth="10" markerHeight="7" refX="9" refY="3.5" orient="auto">
      <polygon points="0 0, 10 3.5, 0 7" fill="#0066cc"/>
    </marker>
    <marker id="utxoarrow" markerWidth="10" markerHeight="7" refX="9" refY="3.5" orient="auto">
      <polygon points="0 0, 10 3.5, 0 7" fill="#cc6600"/>
    </marker>
    <marker id="userarrow" markerWidth="10" markerHeight="7" refX="9" refY="3.5" orient="auto">
      <polygon points="0 0, 10 3.5, 0 7" fill="#009900"/>
    </marker>
    <marker id="liquidationarrow" markerWidth="10" markerHeight="7" refX="9" refY="3.5" orient="auto">
      <polygon points="0 0, 10 3.5, 0 7" fill="#cc0000"/>
    </marker>
  </defs>

  <!-- Title -->
  <text x="600" y="40" class="title" text-anchor="middle">BitLend: Trustless BTC Lending Protocol on exSat</text>
  <text x="600" y="70" class="subtitle" text-anchor="middle">Architecture Diagram</text>

  <!-- Background Boxes -->
  <!-- exSat Network Layer -->
  <rect x="50" y="100" width="1100" height="150" fill="#f0f0f0" rx="10" ry="10" stroke="#cccccc" stroke-width="2"/>
  <text x="600" y="125" class="group-title" text-anchor="middle">exSat Network Layer</text>

  <!-- Bitcoin Layer -->
  <rect x="50" y="270" width="1100" height="100" fill="#ffebcc" rx="10" ry="10" stroke="#cc6600" stroke-width="2"/>
  <text x="600" y="295" class="group-title" text-anchor="middle">Bitcoin Network Layer</text>

  <!-- Smart Contract Layer -->
  <rect x="50" y="390" width="1100" height="220" fill="#e6f2ff" rx="10" ry="10" stroke="#0066cc" stroke-width="2"/>
  <text x="600" y="415" class="group-title" text-anchor="middle">BitLend Smart Contract Layer</text>

  <!-- Frontend Layer -->
  <rect x="50" y="630" width="1100" height="220" fill="#e6ffe6" rx="10" ry="10" stroke="#009900" stroke-width="2"/>
  <text x="600" y="655" class="group-title" text-anchor="middle">BitLend Frontend Layer</text>

  <!-- exSat Network Components -->
  <rect x="100" y="150" width="150" height="70" fill="#ffffff" rx="5" ry="5" stroke="#333333" stroke-width="2"/>
  <text x="175" y="170" class="component" text-anchor="middle">UTXO Management</text>
  <text x="175" y="190" class="description" text-anchor="middle">Bitcoin UTXO Data</text>
  <text x="175" y="210" class="description" text-anchor="middle">On-Chain Verification</text>

  <rect x="300" y="150" width="150" height="70" fill="#ffffff" rx="5" ry="5" stroke="#333333" stroke-width="2"/>
  <text x="375" y="170" class="component" text-anchor="middle">exSat Bridge</text>
  <text x="375" y="190" class="description" text-anchor="middle">BTC ↔ XBTC</text>
  <text x="375" y="210" class="description" text-anchor="middle">Cross-Chain Transfer</text>

  <rect x="500" y="150" width="150" height="70" fill="#ffffff" rx="5" ry="5" stroke="#333333" stroke-width="2"/>
  <text x="575" y="170" class="component" text-anchor="middle">XBTC Token</text>
  <text x="575" y="190" class="description" text-anchor="middle">Wrapped Bitcoin</text>
  <text x="575" y="210" class="description" text-anchor="middle">ERC-20 on exSat</text>

  <rect x="700" y="150" width="150" height="70" fill="#ffffff" rx="5" ry="5" stroke="#333333" stroke-width="2"/>
  <text x="775" y="170" class="component" text-anchor="middle">USDC Token</text>
  <text x="775" y="190" class="description" text-anchor="middle">Stablecoin</text>
  <text x="775" y="210" class="description" text-anchor="middle">Lending Asset</text>
  
  <rect x="900" y="150" width="150" height="70" fill="#ffffff" rx="5" ry="5" stroke="#333333" stroke-width="2"/>
  <text x="975" y="170" class="component" text-anchor="middle">exSat Consensus</text>
  <text x="975" y="190" class="description" text-anchor="middle">PoW + PoS Hybrid</text>
  <text x="975" y="210" class="description" text-anchor="middle">Bitcoin Metadata</text>

  <!-- Bitcoin Network Components -->
  <rect x="200" y="320" width="200" height="40" fill="#ffffff" rx="5" ry="5" stroke="#cc6600" stroke-width="2"/>
  <text x="300" y="345" class="component" text-anchor="middle">Bitcoin Transactions</text>

  <rect x="450" y="320" width="200" height="40" fill="#ffffff" rx="5" ry="5" stroke="#cc6600" stroke-width="2"/>
  <text x="550" y="345" class="component" text-anchor="middle">Bitcoin UTXO Set</text>

  <rect x="700" y="320" width="200" height="40" fill="#ffffff" rx="5" ry="5" stroke="#cc6600" stroke-width="2"/>
  <text x="800" y="345" class="component" text-anchor="middle">Bitcoin Mempool</text>

  <!-- Smart Contract Components -->
  <rect x="100" y="440" width="150" height="70" fill="#ffffff" rx="5" ry="5" stroke="#0066cc" stroke-width="2"/>
  <text x="175" y="460" class="component" text-anchor="middle">BitLendBridge</text>
  <text x="175" y="480" class="description" text-anchor="middle">Bridge Interface</text>
  <text x="175" y="500" class="description" text-anchor="middle">Fee Management</text>

  <rect x="300" y="440" width="150" height="70" fill="#ffffff" rx="5" ry="5" stroke="#0066cc" stroke-width="2"/>
  <text x="375" y="460" class="component" text-anchor="middle">BitLendVault</text>
  <text x="375" y="480" class="description" text-anchor="middle">Loan Management</text>
  <text x="375" y="500" class="description" text-anchor="middle">Collateral Handling</text>

  <rect x="500" y="440" width="150" height="70" fill="#ffffff" rx="5" ry="5" stroke="#0066cc" stroke-width="2"/>
  <text x="575" y="460" class="component" text-anchor="middle">BitLendPriceOracle</text>
  <text x="575" y="480" class="description" text-anchor="middle">BTC/USD Price Feeds</text>
  <text x="575" y="500" class="description" text-anchor="middle">Collateral Valuation</text>

  <rect x="700" y="440" width="150" height="70" fill="#ffffff" rx="5" ry="5" stroke="#0066cc" stroke-width="2"/>
  <text x="775" y="460" class="component" text-anchor="middle">BitLendLiquidator</text>
  <text x="775" y="480" class="description" text-anchor="middle">Position Monitoring</text>
  <text x="775" y="500" class="description" text-anchor="middle">Liquidation Logic</text>

  <rect x="900" y="440" width="150" height="70" fill="#ffffff" rx="5" ry="5" stroke="#0066cc" stroke-width="2"/>
  <text x="975" y="460" class="component" text-anchor="middle">BitLendProofOfReserves</text>
  <text x="975" y="480" class="description" text-anchor="middle">UTXO Verification</text>
  <text x="975" y="500" class="description" text-anchor="middle">Transparent Collateral</text>

  <rect x="200" y="530" width="700" height="50" fill="#ffffff" rx="5" ry="5" stroke="#0066cc" stroke-width="2"/>
  <text x="550" y="560" class="component" text-anchor="middle">ThirdwebSDK v5 Contract Interaction Layer</text>

  <!-- Frontend Components -->
  <rect x="100" y="680" width="120" height="60" fill="#ffffff" rx="5" ry="5" stroke="#009900" stroke-width="2"/>
  <text x="160" y="705" class="component" text-anchor="middle">Dashboard</text>
  <text x="160" y="725" class="description" text-anchor="middle">Main UI</text>

  <rect x="250" y="680" width="120" height="60" fill="#ffffff" rx="5" ry="5" stroke="#009900" stroke-width="2"/>
  <text x="310" y="705" class="component" text-anchor="middle">BridgeModal</text>
  <text x="310" y="725" class="description" text-anchor="middle">BTC ↔ XBTC</text>

  <rect x="400" y="680" width="120" height="60" fill="#ffffff" rx="5" ry="5" stroke="#009900" stroke-width="2"/>
  <text x="460" y="705" class="component" text-anchor="middle">DepositPanel</text>
  <text x="460" y="725" class="description" text-anchor="middle">Add Collateral</text>

  <rect x="550" y="680" width="120" height="60" fill="#ffffff" rx="5" ry="5" stroke="#009900" stroke-width="2"/>
  <text x="610" y="705" class="component" text-anchor="middle">BorrowPanel</text>
  <text x="610" y="725" class="description" text-anchor="middle">Create Loan</text>

  <rect x="700" y="680" width="120" height="60" fill="#ffffff" rx="5" ry="5" stroke="#009900" stroke-width="2"/>
  <text x="760" y="705" class="component" text-anchor="middle">RepayPanel</text>
  <text x="760" y="725" class="description" text-anchor="middle">Repay Debt</text>

  <rect x="850" y="680" width="120" height="60" fill="#ffffff" rx="5" ry="5" stroke="#009900" stroke-width="2"/>
  <text x="910" y="705" class="component" text-anchor="middle">WithdrawPanel</text>
  <text x="910" y="725" class="description" text-anchor="middle">Remove Collateral</text>

  <rect x="100" y="760" width="120" height="60" fill="#ffffff" rx="5" ry="5" stroke="#009900" stroke-width="2"/>
  <text x="160" y="785" class="component" text-anchor="middle">PositionCard</text>
  <text x="160" y="805" class="description" text-anchor="middle">Loan Details</text>

  <rect x="250" y="760" width="120" height="60" fill="#ffffff" rx="5" ry="5" stroke="#009900" stroke-width="2"/>
  <text x="310" y="785" class="component" text-anchor="middle">UTXOViewer</text>
  <text x="310" y="805" class="description" text-anchor="middle">UTXO Visualization</text>

  <rect x="400" y="760" width="120" height="60" fill="#ffffff" rx="5" ry="5" stroke="#009900" stroke-width="2"/>
  <text x="460" y="785" class="component" text-anchor="middle">ProofOfReserves</text>
  <text x="460" y="805" class="description" text-anchor="middle">Collateral Proof</text>

  <rect x="550" y="760" width="120" height="60" fill="#ffffff" rx="5" ry="5" stroke="#009900" stroke-width="2"/>
  <text x="610" y="785" class="component" text-anchor="middle">LiquidationData</text>
  <text x="610" y="805" class="description" text-anchor="middle">Risk Analytics</text>

  <rect x="700" y="760" width="120" height="60" fill="#ffffff" rx="5" ry="5" stroke="#009900" stroke-width="2"/>
  <text x="760" y="785" class="component" text-anchor="middle">TransactionList</text>
  <text x="760" y="805" class="description" text-anchor="middle">User History</text>

  <rect x="850" y="760" width="120" height="60" fill="#ffffff" rx="5" ry="5" stroke="#009900" stroke-width="2"/>
  <text x="910" y="785" class="component" text-anchor="middle">MarketStats</text>
  <text x="910" y="805" class="description" text-anchor="middle">Protocol Metrics</text>

  <!-- Layer Connections -->
  <!-- UTXO Flow -->
  <path d="M 175 220 L 175 320" class="utxo-flow" />
  <path d="M 175 320 L 550 320" class="utxo-flow" />
  <path d="M 550 360 L 550 390 L 975 390 L 975 440" class="utxo-flow" />
  <path d="M 975 510 L 975 580 L 310 580 L 310 760" class="utxo-flow" />
  <path d="M 975 510 L 975 580 L 460 580 L 460 760" class="utxo-flow" />

  <!-- Bridge Flow -->
  <path d="M 375 220 L 375 320 L 300 320" class="flow-arrow" />
  <path d="M 375 220 L 375 390 L 175 390 L 175 440" class="flow-arrow" />

  <!-- Token Flow -->
  <path d="M 575 220 L 575 390 L 375 390 L 375 440" class="flow-arrow" />
  <path d="M 775 220 L 775 390 L 375 390 L 375 440" class="flow-arrow" />

  <!-- Contract Interactions -->
  <path d="M 175 510 L 175 555" class="flow-arrow" />
  <path d="M 375 510 L 375 555" class="flow-arrow" />
  <path d="M 575 510 L 575 555" class="flow-arrow" />
  <path d="M 775 510 L 775 555" class="flow-arrow" />
  <path d="M 975 510 L 975 555" class="flow-arrow" />

  <!-- Frontend to Smart Contract -->
  <path d="M 550 580 L 550 630 L 160 630 L 160 680" class="data-flow" />
  <path d="M 550 580 L 550 630 L 310 630 L 310 680" class="data-flow" />
  <path d="M 550 580 L 550 630 L 460 630 L 460 680" class="data-flow" />
  <path d="M 550 580 L 550 630 L 610 630 L 610 680" class="data-flow" />
  <path d="M 550 580 L 550 630 L 760 630 L 760 680" class="data-flow" />
  <path d="M 550 580 L 550 630 L 910 630 L 910 680" class="data-flow" />

  <!-- User Flow -->
  <path d="M 160 740 L 160 760" class="user-flow" />
  <path d="M 310 740 L 310 760" class="user-flow" />
  <path d="M 460 740 L 460 760" class="user-flow" />
  <path d="M 610 740 L 610 760" class="user-flow" />
  <path d="M 760 740 L 760 760" class="user-flow" />
  <path d="M 910 740 L 910 760" class="user-flow" />

  <!-- Liquidation Flow -->
  <path d="M 775 510 L 775 600 L 610 600 L 610 760" class="liquidation-flow" />
  <path d="M 800 320 L 800 390 L 775 390 L 775 440" class="liquidation-flow" />

  <!-- Legend -->
  <rect x="1000" y="740" width="140" height="100" fill="#ffffff" rx="5" ry="5" stroke="#333333" stroke-width="1"/>
  <text x="1070" y="760" class="description" text-anchor="middle">Legend</text>
  
  <line x1="1010" y1="775" x2="1040" y2="775" class="flow-arrow" />
  <text x="1090" y="780" class="description">Contract Flow</text>
  
  <line x1="1010" y1="795" x2="1040" y2="795" class="data-flow" />
  <text x="1090" y="800" class="description">Data Flow</text>
  
  <line x1="1010" y1="815" x2="1040" y2="815" class="utxo-flow" />
  <text x="1090" y="820" class="description">UTXO Data</text>
  
  <line x1="1010" y1="835" x2="1040" y2="835" class="liquidation-flow" />
  <text x="1090" y="840" class="description">Liquidation</text>
</svg> 